<?xml version="1.0" encoding="utf-8" ?><!-- created by svgstack.com | Attribution is required. --><svg xmlns="http://www.w3.org/2000/svg" xmlns:xlink="http://www.w3.org/1999/xlink" width="1024" height="1024"><path transform="scale(2 2)" d="M250.874 68.2518C274.71 66.4745 299.396 76.769 316.653 92.8328C372.9 145.19 334.264 239.994 260.515 242.273C215.885 244.833 176.622 212.04 169.752 168.05C162.339 120.59 193.855 79.1827 240.263 69.6995C243.753 68.9865 247.354 68.7992 250.874 68.2518ZM252.159 95.6482C199.785 99.369 176.146 165.812 216.993 200.546C229.741 211.386 244.053 215.31 260.515 215C294.34 211.686 319.264 183.454 315.826 149.123C312.671 117.614 283.741 93.2319 252.159 95.6482Z"/><path transform="scale(2 2)" d="M234.266 267.007L263.771 267.001C270.536 266.999 277.38 266.798 284.125 267.411C334.359 271.98 380.705 310.478 393.817 359.301C396.204 368.19 399.79 387.95 399.899 396.605C400.181 418.953 383.187 436.506 362.17 441.367C353.271 443.426 338.429 442.524 328.87 442.522L277.511 442.53L168.816 442.549C163.235 442.567 157.277 442.958 151.771 441.99C134.117 438.886 114.174 419.696 112.341 401.935C111.79 396.599 112.187 390.963 112.648 385.627C118.462 318.235 168.691 273.465 234.266 267.007ZM235.157 294.241C185.084 299.114 145.871 335.366 141.039 386.399C139.894 398.489 141.004 412.405 156.499 414.755C161.142 415.459 166.175 415.119 170.873 415.119L278.875 415.115L329.661 415.122C344.49 415.12 372.766 418.887 372.604 395.61C372.559 389.163 367.723 367.876 365.707 361.289C354.749 325.481 319.316 299.205 282.761 294.886C269.159 293.278 249.229 294.038 235.157 294.241Z"/></svg> 